<?xml version="1.0" encoding="UTF-8" standalone="no"?>
<!-- Created with Inkscape (http://www.inkscape.org/) -->

<svg
   xmlns:osb="http://www.openswatchbook.org/uri/2009/osb"
   xmlns:dc="http://purl.org/dc/elements/1.1/"
   xmlns:cc="http://creativecommons.org/ns#"
   xmlns:rdf="http://www.w3.org/1999/02/22-rdf-syntax-ns#"
   xmlns:svg="http://www.w3.org/2000/svg"
   xmlns="http://www.w3.org/2000/svg"
   xmlns:sodipodi="http://sodipodi.sourceforge.net/DTD/sodipodi-0.dtd"
   xmlns:inkscape="http://www.inkscape.org/namespaces/inkscape"
   width="200"
   height="200"
   viewBox="0 0 52.916664 52.916668"
   version="1.1"
   id="svg8"
   sodipodi:docname="logo.svg"
   inkscape:version="0.92.4 (unknown)">
  <defs
     id="defs2">
    <linearGradient
       id="linearGradient2288"
       osb:paint="solid">
      <stop
         style="stop-color:#000000;stop-opacity:1;"
         offset="0"
         id="stop2286" />
    </linearGradient>
  </defs>
  <sodipodi:namedview
     id="base"
     pagecolor="#ffffff"
     bordercolor="#666666"
     borderopacity="1.0"
     inkscape:pageopacity="0.0"
     inkscape:pageshadow="2"
     inkscape:zoom="1"
     inkscape:cx="51.821557"
     inkscape:cy="209.58792"
     inkscape:document-units="px"
     inkscape:current-layer="layer1"
     showgrid="true"
     showborder="false"
     inkscape:window-width="1600"
     inkscape:window-height="876"
     inkscape:window-x="153"
     inkscape:window-y="1104"
     inkscape:window-maximized="1"
     objecttolerance="10000"
     guidetolerance="20"
     inkscape:snap-path-clip="true"
     inkscape:snap-path-mask="true"
     units="px"
     gridtolerance="10"
     inkscape:snap-global="true"
     inkscape:snap-nodes="false">
    <inkscape:grid
       type="xygrid"
       id="grid13" />
  </sodipodi:namedview>
  <metadata
     id="metadata5">
    <rdf:RDF>
      <cc:Work
         rdf:about="">
        <dc:format>image/svg+xml</dc:format>
        <dc:type
           rdf:resource="http://purl.org/dc/dcmitype/StillImage" />
        <dc:title></dc:title>
      </cc:Work>
    </rdf:RDF>
  </metadata>
  <g
     inkscape:label="Links"
     inkscape:groupmode="layer"
     id="layer1"
     transform="translate(0,-244.08332)"
     style="display:inline;opacity:1">
    <path
       style="opacity:1;fill:#ffffff;fill-opacity:1;fill-rule:evenodd;stroke:#000000;stroke-width:0;stroke-miterlimit:4;stroke-dasharray:none;stroke-dashoffset:0;stroke-opacity:1"
       d="m 6.8467539,246.83304 a 6.7206763,6.720677 0 0 0 -6.72067407,6.72068 6.7206763,6.720677 0 0 0 5.13076527,6.52171 c -0.5169998,-0.78112 0.0094,-2.4844 2.1240762,-6.14703 2.2498908,-3.89694 3.4777757,-5.12793 4.4375627,-4.88561 a 6.7206763,6.720677 0 0 0 -4.9717301,-2.20975 z m 4.9717301,2.20975 a 6.7206763,6.720677 0 0 1 1.748949,4.51093 6.7206763,6.720677 0 0 1 -6.7206791,6.72066 6.7206763,6.720677 0 0 1 -1.5899088,-0.19895 c 1.4367123,2.17068 10.9334059,-2.78126 16.8099379,7.39718 5.850048,10.13257 -3.078946,15.87476 -2.013646,18.22453 a 6.7206763,6.720677 0 0 1 6.455766,-4.87196 6.7206763,6.720677 0 0 1 6.402822,4.70338 c 0.601779,-2.44932 -7.786481,-8.15785 -2.071789,-18.05595 5.848439,-10.1298 15.282189,-5.27376 16.788454,-7.36682 a 6.7206763,6.720677 0 0 1 -1.457342,0.16852 6.7206763,6.720677 0 0 1 -6.720679,-6.72067 6.7206763,6.720677 0 0 1 1.770857,-4.53413 c -2.560421,0.27435 -3.080388,10.85512 -14.767867,10.85512 -11.48252,0 -12.185689,-10.21352 -14.634875,-10.83192 z m 29.402742,-0.0222 c 0.940891,-0.10071 2.157154,1.18941 4.304565,4.90882 2.142721,3.71131 2.654455,5.41057 2.102599,6.1774 a 6.7206763,6.720677 0 0 0 5.263326,-6.55209 6.7206763,6.720677 0 0 0 -6.720668,-6.72067 6.7206763,6.720677 0 0 0 -4.949822,2.18654 z m -8.309501,36.50899 c -0.239706,0.9757 -1.905436,1.43435 -6.458366,1.43435 -4.282205,0 -6.010321,-0.40576 -6.400222,-1.26575 a 6.7206763,6.720677 0 0 0 -0.264916,1.84872 6.7206763,6.720677 0 0 0 6.720682,6.72068 6.7206763,6.720677 0 0 0 6.720678,-6.72068 6.7206763,6.720677 0 0 0 -0.317856,-2.01732 z"
       id="path4685"
       inkscape:connector-curvature="0"
       inkscape:export-xdpi="300"
       inkscape:export-ydpi="300" />
  </g>
</svg>
